#!OML:ASF E:\emotionWalksFemale\Project 1\Capture day 1\Session 1\Female1.ASF
:FULLY-SPECIFIED
:DEGREES
1786
root 9.7324 15.374 -39.1326 -0.126298 -0.590314 0.460063
lowerback 5.36954 3.02884 1.9734
upperback -6.39041 4.27363 -0.0961446
thorax -9.63668 1.93613 -1.7816
lowerneck -3.40682 -5.36947 -8.18249
upperneck 10.8465 -7.22459 5.2971
head 4.29165 -3.63881 2.58632
rclavicle -8.44835e-015 -6.55989e-015
rhumerus -45.6677 16.6498 -95.8886
rradius 30.8283
rwrist 18.5528
rhand -3.10383 -48.6946
rfingers 7.12502
rthumb 22.6143 -77.3899
lclavicle -8.44835e-015 -6.55989e-015
lhumerus -46.8554 -1.16897 85.7412
lradius 37.939
lwrist -14.9653
lhand -7.16875 -32.25
lfingers 7.12502
lthumb 18.7085 -3.12968
rfemur -2.73646 0.00371538 28.192
rtibia 25.1405
rfoot -47.0213 -43.9253
rtoes 38.7494
lfemur -10.6252 -14.4235 -24.4066
ltibia 29.9123
lfoot -24.5991 21.7753
ltoes -3.057
1787
root 9.75864 15.3801 -39.121 -0.183908 -0.409113 0.371214
lowerback 5.5241 2.95454 1.98534
upperback -6.43994 4.18544 -0.0347943
thorax -9.79124 1.891 -1.72357
lowerneck -3.38286 -5.32722 -8.30315
upperneck 10.8158 -7.18441 5.51841
head 4.28741 -3.61336 2.67704
rclavicle -2.89729e-014 5.96354e-016
rhumerus -45.7565 16.5205 -95.8141
rradius 31.007
rwrist 18.5078
rhand -3.11455 -48.835
rfingers 7.12502
rthumb 22.604 -77.5315
lclavicle -2.89729e-014 5.96354e-016
lhumerus -47.0029 -1.42936 86.0177
lradius 38.0393
lwrist -14.8841
lhand -6.44708 -31.9991
lfingers 7.12502
lthumb 19.4025 -2.94715
rfemur -2.86563 -0.434018 28.1238
rtibia 25.5238
rfoot -46.9042 -43.8448
rtoes 38.4944
lfemur -10.3711 -14.3983 -24.4405
ltibia 29.6215
lfoot -24.5098 21.7969
ltoes -4.74291
1788
root 9.78896 15.3857 -39.1077 -0.253819 -0.22995 0.331921
lowerback 5.67871 2.86839 1.95765
upperback -6.50721 4.08071 0.0593487
thorax -9.97152 1.84163 -1.6065
lowerneck -3.15732 -5.28589 -8.52523
upperneck 10.6837 -7.14789 5.71647
head 4.22185 -3.59795 2.78286
rclavicle -4.67641e-014 -7.55382e-015
rhumerus -45.9364 16.5337 -95.7301
rradius 31.2168
rwrist 18.4114
rhand -3.03873 -48.809
rfingers 7.12502
rthumb 22.6768 -77.4966
lclavicle -4.67641e-014 -7.55382e-015
lhumerus -47.1845 -1.58686 86.3716
lradius 38.1898
lwrist -14.5764
lhand -5.60277 -31.5639
lfingers 7.12502
lthumb 20.2142 -2.59566
rfemur -2.96917 -0.768306 27.9751
rtibia 25.8752
rfoot -46.174 -44.2505
rtoes 37.4114
lfemur -10.1032 -14.5688 -24.5844
ltibia 29.338
lfoot -24.6098 22.4101
ltoes -8.32192
1789
root 9.82122 15.3912 -39.0874 -0.336095 -0.0804105 0.337907
lowerback 5.65051 2.83362 2.02271
upperback -6.49201 4.03504 0.00918297
thorax -9.9312 1.81354 -1.68731
lowerneck -3.12386 -5.37139 -8.3852
upperneck 10.7188 -7.27393 5.68
head 4.2296 -3.65712 2.74226
rclavicle -2.64135e-014 1.39149e-015
rhumerus -45.843 16.2637 -95.6666
rradius 31.2464
rwrist 18.2766
rhand -2.901 -48.7781
rfingers 7.12502
rthumb 22.809 -77.4496
lclavicle -2.64135e-014 1.39149e-015
lhumerus -47.296 -1.94505 86.6011
lradius 37.4959
lwrist -16.5619
lhand -9.32388 -33.7555
lfingers 7.12502
lthumb 16.6346 -4.44838
rfemur -2.97032 -1.039 27.7689
rtibia 26.2237
rfoot -44.6941 -44.7122
rtoes 35.7243
lfemur -9.777 -14.8827 -24.814
ltibia 29.0556
lfoot -24.196 22.4976
ltoes -7.71147
1790
root 9.85215 15.3957 -39.0663 -0.363474 0.0581709 0.276872
lowerback 5.26099 2.80603 1.95016
upperback -6.29984 3.98563 0.127788
thorax -9.50113 1.8105 -1.48423
lowerneck -3.28231 -5.39406 -8.36417
upperneck 10.609 -7.28298 5.62466
head 4.22068 -3.66007 2.7178
rclavicle 5.36719e-015 2.54444e-014
rhumerus -45.4777 16.366 -95.451
rradius 31.2606
rwrist 17.8247
rhand -2.7621 -49.1765
rfingers 7.12502
rthumb 22.9423 -77.8315
lclavicle 5.36719e-015 2.54444e-014
lhumerus -47.0101 -1.9063 86.8362
lradius 37.1223
lwrist -17.4037
lhand -10.5678 -34.7126
lfingers 7.12502
lthumb 15.4368 -5.30902
rfemur -3.0109 -1.31213 27.6398
rtibia 26.5685
rfoot -43.4279 -44.7877
rtoes 34.6423
lfemur -9.51468 -15.1354 -24.945
ltibia 28.7647
lfoot -23.9921 23.2018
ltoes -11.8527
1791
root 9.88153 15.4004 -39.0511 -0.424289 0.24859 0.186683
lowerback 5.6593 2.71614 2.1041
upperback -6.528 3.89503 0.105139
thorax -9.98363 1.74251 -1.61338
lowerneck -3.27095 -5.35996 -8.35676
upperneck 10.9441 -7.26093 5.70883
head 4.32166 -3.64656 2.74153
rclavicle 2.60905e-014 1.25234e-014
rhumerus -45.7912 16.1699 -95.5817
rradius 31.3755
rwrist 17.5897
rhand -2.75453 -49.4793
rfingers 7.12502
rthumb 22.9495 -78.1333
lclavicle 2.60905e-014 1.25234e-014
lhumerus -47.343 -2.04526 86.8885
lradius 37.0892
lwrist -17.457
lhand -10.6791 -34.6042
lfingers 7.12502
lthumb 15.3296 -5.19237
rfemur -3.08338 -1.28951 27.5979
rtibia 26.9398
rfoot -43.5949 -44.6515
rtoes 35.3132
lfemur -9.24207 -15.4206 -25.0205
ltibia 28.4646
lfoot -23.9826 23.4347
ltoes -12.1343
1792
root 9.91101 15.406 -39.0406 -0.519052 0.476906 0.16789
lowerback 5.5031 2.69243 2.08704
upperback -6.40276 3.85497 0.118137
thorax -9.75453 1.73069 -1.57118
lowerneck -3.26281 -5.42969 -8.34568
upperneck 10.9043 -7.36691 5.81068
head 4.31894 -3.69329 2.76506
rclavicle 3.71727e-014 2.48481e-014
rhumerus -45.5419 15.8873 -95.3526
rradius 31.4147
rwrist 17.5895
rhand -3.03811 -49.0868
rfingers 7.12502
rthumb 22.6774 -77.7743
lclavicle 3.71727e-014 2.48481e-014
lhumerus -47.0743 -2.30149 87.1646
lradius 37.0019
lwrist -17.3187
lhand -10.2669 -34.2432
lfingers 7.12502
lthumb 15.7266 -4.86217
rfemur -3.11804 -1.21189 27.4948
rtibia 27.3491
rfoot -43.5816 -44.5957
rtoes 35.8989
lfemur -8.92994 -15.7353 -25.1841
ltibia 28.1687
lfoot -23.9557 23.3415
ltoes -10.0004
